<mxfile host="65bd71144e" modified="2020-11-07T11:03:35.935Z" agent="5.0 (Windows NT 10.0; Win64; x64) AppleWebKit/537.36 (KHTML, like Gecko) Code/1.51.0 Chrome/83.0.4103.122 Electron/9.3.3 Safari/537.36" etag="-5iNnQS289ERG-AbEyxR" version="13.6.5">
    <diagram name="Page-1" id="52a04d89-c75d-2922-d76d-85b35f80e030">
        <mxGraphModel dx="990" dy="585" grid="1" gridSize="10" guides="1" tooltips="1" connect="1" arrows="1" fold="1" page="1" pageScale="1" pageWidth="1100" pageHeight="850" background="#ffffff" math="0" shadow="0">
            <root>
                <mxCell id="0"/>
                <mxCell id="1" parent="0"/>
                <mxCell id="110" value="&lt;span&gt;Màn hình&lt;/span&gt;" style="shape=umlLifeline;perimeter=lifelinePerimeter;whiteSpace=wrap;html=1;container=1;collapsible=0;recursiveResize=0;outlineConnect=0;" vertex="1" parent="1">
                    <mxGeometry x="240" y="80" width="100" height="640" as="geometry"/>
                </mxCell>
                <mxCell id="165" value="" style="html=1;points=[];perimeter=orthogonalPerimeter;" vertex="1" parent="110">
                    <mxGeometry x="45" y="80" width="10" height="40" as="geometry"/>
                </mxCell>
                <mxCell id="168" value="" style="html=1;points=[];perimeter=orthogonalPerimeter;" vertex="1" parent="110">
                    <mxGeometry x="45" y="200" width="10" height="40" as="geometry"/>
                </mxCell>
                <mxCell id="172" value="" style="html=1;points=[];perimeter=orthogonalPerimeter;" vertex="1" parent="110">
                    <mxGeometry x="45" y="280" width="10" height="40" as="geometry"/>
                </mxCell>
                <mxCell id="175" value="" style="html=1;points=[];perimeter=orthogonalPerimeter;" vertex="1" parent="110">
                    <mxGeometry x="45" y="400" width="10" height="120" as="geometry"/>
                </mxCell>
                <mxCell id="150" value="" style="html=1;verticalAlign=bottom;endArrow=open;dashed=1;endSize=8;" edge="1" parent="110">
                    <mxGeometry relative="1" as="geometry">
                        <mxPoint x="520" y="400" as="sourcePoint"/>
                        <mxPoint x="55" y="400" as="targetPoint"/>
                        <Array as="points">
                            <mxPoint x="450.25" y="400.44"/>
                        </Array>
                    </mxGeometry>
                </mxCell>
                <mxCell id="112" value="&lt;span&gt;Tài khoản&lt;/span&gt;" style="shape=umlLifeline;perimeter=lifelinePerimeter;whiteSpace=wrap;html=1;container=1;collapsible=0;recursiveResize=0;outlineConnect=0;" vertex="1" parent="1">
                    <mxGeometry x="480" y="80" width="100" height="640" as="geometry"/>
                </mxCell>
                <mxCell id="166" value="" style="html=1;points=[];perimeter=orthogonalPerimeter;" vertex="1" parent="112">
                    <mxGeometry x="45" y="120" width="10" height="40" as="geometry"/>
                </mxCell>
                <mxCell id="173" value="" style="html=1;points=[];perimeter=orthogonalPerimeter;" vertex="1" parent="112">
                    <mxGeometry x="45" y="320" width="10" height="40" as="geometry"/>
                </mxCell>
                <mxCell id="182" value="" style="html=1;points=[];perimeter=orthogonalPerimeter;" vertex="1" parent="112">
                    <mxGeometry x="45" y="480" width="10" height="120" as="geometry"/>
                </mxCell>
                <mxCell id="113" value="Database" style="shape=umlLifeline;perimeter=lifelinePerimeter;whiteSpace=wrap;html=1;container=1;collapsible=0;recursiveResize=0;outlineConnect=0;" vertex="1" parent="1">
                    <mxGeometry x="720" y="80" width="100" height="640" as="geometry"/>
                </mxCell>
                <mxCell id="167" value="" style="html=1;points=[];perimeter=orthogonalPerimeter;" vertex="1" parent="113">
                    <mxGeometry x="45" y="160" width="10" height="40" as="geometry"/>
                </mxCell>
                <mxCell id="174" value="" style="html=1;points=[];perimeter=orthogonalPerimeter;" vertex="1" parent="113">
                    <mxGeometry x="45" y="360" width="10" height="40" as="geometry"/>
                </mxCell>
                <mxCell id="185" value="" style="html=1;points=[];perimeter=orthogonalPerimeter;" vertex="1" parent="113">
                    <mxGeometry x="45" y="520" width="10" height="40" as="geometry"/>
                </mxCell>
                <mxCell id="139" style="edgeStyle=none;rounded=0;orthogonalLoop=1;jettySize=auto;html=1;" edge="1" parent="1" target="110">
                    <mxGeometry relative="1" as="geometry">
                        <mxPoint x="100" y="360" as="sourcePoint"/>
                        <mxPoint x="282" y="359" as="targetPoint"/>
                    </mxGeometry>
                </mxCell>
                <mxCell id="119" value="" style="html=1;verticalAlign=bottom;endArrow=block;" edge="1" parent="1">
                    <mxGeometry width="80" relative="1" as="geometry">
                        <mxPoint x="100" y="160" as="sourcePoint"/>
                        <mxPoint x="285" y="160" as="targetPoint"/>
                        <Array as="points">
                            <mxPoint x="250" y="160"/>
                        </Array>
                    </mxGeometry>
                </mxCell>
                <mxCell id="121" value="1 : chonCacTuyChon()" style="text;html=1;align=center;verticalAlign=middle;resizable=0;points=[];autosize=1;" vertex="1" parent="1">
                    <mxGeometry x="120" y="140" width="140" height="20" as="geometry"/>
                </mxCell>
                <mxCell id="122" value="" style="html=1;verticalAlign=bottom;endArrow=block;" edge="1" parent="1">
                    <mxGeometry width="80" relative="1" as="geometry">
                        <mxPoint x="295" y="200" as="sourcePoint"/>
                        <mxPoint x="525" y="200" as="targetPoint"/>
                    </mxGeometry>
                </mxCell>
                <mxCell id="123" value="2 : truyXuatDanhSachAchievement()" style="text;html=1;align=center;verticalAlign=middle;resizable=0;points=[];autosize=1;" vertex="1" parent="1">
                    <mxGeometry x="305" y="180" width="210" height="20" as="geometry"/>
                </mxCell>
                <mxCell id="124" value="" style="html=1;verticalAlign=bottom;endArrow=block;entryX=-0.22;entryY=0.171;entryDx=0;entryDy=0;entryPerimeter=0;" edge="1" parent="1" source="112">
                    <mxGeometry width="80" relative="1" as="geometry">
                        <mxPoint x="539" y="241" as="sourcePoint"/>
                        <mxPoint x="762.8" y="240.63" as="targetPoint"/>
                    </mxGeometry>
                </mxCell>
                <mxCell id="125" value="3 : yeuCauKiemTraDanhSach()" style="text;html=1;align=center;verticalAlign=middle;resizable=0;points=[];autosize=1;" vertex="1" parent="1">
                    <mxGeometry x="555" y="220" width="180" height="20" as="geometry"/>
                </mxCell>
                <mxCell id="126" value="" style="html=1;verticalAlign=bottom;endArrow=open;dashed=1;endSize=8;entryX=1.14;entryY=0.245;entryDx=0;entryDy=0;entryPerimeter=0;" edge="1" parent="1" source="113">
                    <mxGeometry relative="1" as="geometry">
                        <mxPoint x="670" y="280" as="sourcePoint"/>
                        <mxPoint x="296.4000000000001" y="279.85" as="targetPoint"/>
                        <Array as="points">
                            <mxPoint x="700" y="280"/>
                        </Array>
                    </mxGeometry>
                </mxCell>
                <mxCell id="129" value="4 : kiemTraDanhSach()" style="edgeStyle=orthogonalEdgeStyle;html=1;align=left;spacingLeft=2;endArrow=block;rounded=0;entryX=1;entryY=0;exitX=1;exitY=0.25;exitDx=0;exitDy=0;exitPerimeter=0;" edge="1" parent="1" source="167">
                    <mxGeometry relative="1" as="geometry">
                        <mxPoint x="780" y="250" as="sourcePoint"/>
                        <Array as="points">
                            <mxPoint x="795" y="250"/>
                            <mxPoint x="795" y="270"/>
                        </Array>
                        <mxPoint x="775" y="270" as="targetPoint"/>
                    </mxGeometry>
                </mxCell>
                <mxCell id="133" value="5 : traVeDanhSachAchievement()" style="text;html=1;align=center;verticalAlign=middle;resizable=0;points=[];autosize=1;" vertex="1" parent="1">
                    <mxGeometry x="315" y="260" width="190" height="20" as="geometry"/>
                </mxCell>
                <mxCell id="137" style="edgeStyle=none;rounded=0;orthogonalLoop=1;jettySize=auto;html=1;exitX=0.34;exitY=1.01;exitDx=0;exitDy=0;exitPerimeter=0;" edge="1" parent="1" source="168">
                    <mxGeometry relative="1" as="geometry">
                        <mxPoint x="276.7999999999999" y="320" as="sourcePoint"/>
                        <mxPoint x="103.2" y="320.4" as="targetPoint"/>
                    </mxGeometry>
                </mxCell>
                <mxCell id="138" value="6 : nhanThaoTacNguoiDung()" style="text;html=1;align=center;verticalAlign=middle;resizable=0;points=[];autosize=1;" vertex="1" parent="1">
                    <mxGeometry x="105" y="300" width="170" height="20" as="geometry"/>
                </mxCell>
                <mxCell id="140" value="7 : luaChonCuaNguoiDung()" style="text;html=1;align=center;verticalAlign=middle;resizable=0;points=[];autosize=1;" vertex="1" parent="1">
                    <mxGeometry x="105" y="340" width="170" height="20" as="geometry"/>
                </mxCell>
                <mxCell id="142" style="edgeStyle=none;rounded=0;orthogonalLoop=1;jettySize=auto;html=1;entryX=0.5;entryY=0;entryDx=0;entryDy=0;entryPerimeter=0;" edge="1" parent="1" target="173">
                    <mxGeometry relative="1" as="geometry">
                        <mxPoint x="290" y="400" as="sourcePoint"/>
                        <mxPoint x="521" y="400" as="targetPoint"/>
                    </mxGeometry>
                </mxCell>
                <mxCell id="143" value="8 : xemThongTinKhac()" style="text;html=1;align=center;verticalAlign=middle;resizable=0;points=[];autosize=1;" vertex="1" parent="1">
                    <mxGeometry x="340" y="380" width="140" height="20" as="geometry"/>
                </mxCell>
                <mxCell id="147" style="edgeStyle=none;rounded=0;orthogonalLoop=1;jettySize=auto;html=1;exitX=1.06;exitY=0.611;exitDx=0;exitDy=0;exitPerimeter=0;entryX=-0.22;entryY=0.611;entryDx=0;entryDy=0;entryPerimeter=0;" edge="1" parent="1">
                    <mxGeometry relative="1" as="geometry">
                        <mxPoint x="537.8" y="440" as="sourcePoint"/>
                        <mxPoint x="765" y="440" as="targetPoint"/>
                    </mxGeometry>
                </mxCell>
                <mxCell id="148" value="9 : yeuCauKiemTraThongTin()" style="text;html=1;align=center;verticalAlign=middle;resizable=0;points=[];autosize=1;" vertex="1" parent="1">
                    <mxGeometry x="565" y="415" width="180" height="20" as="geometry"/>
                </mxCell>
                <mxCell id="149" value="10 : kiemTraThongTin()" style="edgeStyle=orthogonalEdgeStyle;html=1;align=left;spacingLeft=2;endArrow=block;rounded=0;entryX=1;entryY=0;" edge="1" parent="1">
                    <mxGeometry relative="1" as="geometry">
                        <mxPoint x="775" y="450" as="sourcePoint"/>
                        <Array as="points">
                            <mxPoint x="800" y="450"/>
                        </Array>
                        <mxPoint x="780" y="470" as="targetPoint"/>
                    </mxGeometry>
                </mxCell>
                <mxCell id="151" value="11 : traVeThongTinCanXem()" style="text;html=1;align=center;verticalAlign=middle;resizable=0;points=[];autosize=1;" vertex="1" parent="1">
                    <mxGeometry x="325" y="460" width="170" height="20" as="geometry"/>
                </mxCell>
                <mxCell id="152" style="edgeStyle=none;rounded=0;orthogonalLoop=1;jettySize=auto;html=1;exitX=1.04;exitY=0.517;exitDx=0;exitDy=0;exitPerimeter=0;entryX=-0.14;entryY=0.517;entryDx=0;entryDy=0;entryPerimeter=0;" edge="1" parent="1">
                    <mxGeometry relative="1" as="geometry">
                        <mxPoint x="100.00000000000009" y="520" as="sourcePoint"/>
                        <mxPoint x="283.19999999999993" y="520" as="targetPoint"/>
                    </mxGeometry>
                </mxCell>
                <mxCell id="153" value="12 : share()" style="text;html=1;align=center;verticalAlign=middle;resizable=0;points=[];autosize=1;" vertex="1" parent="1">
                    <mxGeometry x="140" y="500" width="80" height="20" as="geometry"/>
                </mxCell>
                <mxCell id="164" value="User" style="shape=umlLifeline;participant=umlActor;perimeter=lifelinePerimeter;whiteSpace=wrap;html=1;container=1;collapsible=0;recursiveResize=0;verticalAlign=top;spacingTop=36;outlineConnect=0;" vertex="1" parent="1">
                    <mxGeometry x="90" y="80" width="20" height="640" as="geometry"/>
                </mxCell>
                <mxCell id="162" value="" style="html=1;points=[];perimeter=orthogonalPerimeter;" vertex="1" parent="164">
                    <mxGeometry x="5" y="80" width="10" height="80" as="geometry"/>
                </mxCell>
                <mxCell id="170" value="" style="html=1;points=[];perimeter=orthogonalPerimeter;" vertex="1" parent="164">
                    <mxGeometry x="5" y="240" width="10" height="40" as="geometry"/>
                </mxCell>
                <mxCell id="176" value="" style="html=1;points=[];perimeter=orthogonalPerimeter;" vertex="1" parent="164">
                    <mxGeometry x="5" y="400" width="10" height="40" as="geometry"/>
                </mxCell>
                <mxCell id="180" value="14 : yeuCauThongTin()" style="text;html=1;align=center;verticalAlign=middle;resizable=0;points=[];autosize=1;" vertex="1" parent="1">
                    <mxGeometry x="585" y="580" width="140" height="20" as="geometry"/>
                </mxCell>
                <mxCell id="183" style="edgeStyle=none;rounded=0;orthogonalLoop=1;jettySize=auto;html=1;exitX=1.04;exitY=0.517;exitDx=0;exitDy=0;exitPerimeter=0;" edge="1" parent="1" target="112">
                    <mxGeometry relative="1" as="geometry">
                        <mxPoint x="296.8" y="560" as="sourcePoint"/>
                        <mxPoint x="479.99999999999983" y="560" as="targetPoint"/>
                    </mxGeometry>
                </mxCell>
                <mxCell id="184" value="13 : layThongTin()" style="text;html=1;align=center;verticalAlign=middle;resizable=0;points=[];autosize=1;" vertex="1" parent="1">
                    <mxGeometry x="355" y="540" width="110" height="20" as="geometry"/>
                </mxCell>
                <mxCell id="186" style="edgeStyle=none;rounded=0;orthogonalLoop=1;jettySize=auto;html=1;exitX=1.06;exitY=0.337;exitDx=0;exitDy=0;exitPerimeter=0;" edge="1" parent="1" source="182" target="113">
                    <mxGeometry relative="1" as="geometry">
                        <mxPoint x="540" y="600" as="sourcePoint"/>
                        <mxPoint x="714.9999999999998" y="600" as="targetPoint"/>
                    </mxGeometry>
                </mxCell>
                <mxCell id="187" value="15 : traVeThongTin()" style="text;html=1;align=center;verticalAlign=middle;resizable=0;points=[];autosize=1;" vertex="1" parent="1">
                    <mxGeometry x="590" y="620" width="130" height="20" as="geometry"/>
                </mxCell>
                <mxCell id="188" value="" style="html=1;points=[];perimeter=orthogonalPerimeter;" vertex="1" parent="1">
                    <mxGeometry x="285" y="640" width="10" height="40" as="geometry"/>
                </mxCell>
                <mxCell id="189" value="" style="html=1;verticalAlign=bottom;endArrow=open;dashed=1;endSize=8;" edge="1" parent="1">
                    <mxGeometry relative="1" as="geometry">
                        <mxPoint x="770" y="640" as="sourcePoint"/>
                        <mxPoint x="538" y="640" as="targetPoint"/>
                        <Array as="points"/>
                    </mxGeometry>
                </mxCell>
                <mxCell id="190" style="edgeStyle=none;rounded=0;orthogonalLoop=1;jettySize=auto;html=1;entryX=0.82;entryY=1.01;entryDx=0;entryDy=0;entryPerimeter=0;" edge="1" parent="1" source="182" target="188">
                    <mxGeometry relative="1" as="geometry">
                        <mxPoint x="300" y="680" as="targetPoint"/>
                    </mxGeometry>
                </mxCell>
                <mxCell id="191" value="16 : traVeThongBaoShareThanhCong()" style="text;html=1;align=center;verticalAlign=middle;resizable=0;points=[];autosize=1;" vertex="1" parent="1">
                    <mxGeometry x="295" y="660" width="230" height="20" as="geometry"/>
                </mxCell>
            </root>
        </mxGraphModel>
    </diagram>
</mxfile>